<?xml version="1.0" standalone="no"?>
<!DOCTYPE svg PUBLIC "-//W3C//DTD SVG 20010904//EN"
 "http://www.w3.org/TR/2001/REC-SVG-20010904/DTD/svg10.dtd">
<svg version="1.0" xmlns="http://www.w3.org/2000/svg"
 width="900.000000pt" height="900.000000pt" viewBox="0 0 900.000000 900.000000"
 preserveAspectRatio="xMidYMid meet">
<metadata>
Created by potrace 1.11, written by Peter Selinger 2001-2013
</metadata>
<g transform="translate(0.000000,900.000000) scale(0.100000,-0.100000)"
fill="#000000" stroke="none">
<path d="M4295 8444 c-565 -43 -981 -146 -1441 -356 -861 -394 -1570 -1107
-1954 -1968 -238 -533 -344 -1034 -344 -1625 0 -385 30 -625 123 -990 201
-782 641 -1483 1266 -2015 250 -213 486 -370 775 -515 431 -216 864 -346 1345
-402 210 -24 663 -24 870 0 636 75 1224 288 1740 630 631 419 1140 1022 1440
1708 348 794 426 1688 219 2529 -350 1425 -1470 2545 -2895 2895 -282 69 -559
104 -874 109 -121 2 -242 2 -270 0z"/>
</g>
</svg>
